HIERARCHY
ROOT Hips
{
	OFFSET -0.179506 -22.333345 2.821913
	CHANNELS 6 Xposition Yposition Zposition Zrotation Yrotation Xrotation 
	JOINT LeftUpLeg
	{
		OFFSET 6.951974 -9.140623 -0.681533
		CHANNELS 3 Zrotation Yrotation Xrotation
		JOINT LeftLeg
		{
			OFFSET 3.427654 -37.519855 -0.449580
			CHANNELS 3 Zrotation Yrotation Xrotation
			JOINT LeftFoot
			{
				OFFSET -1.359570 -39.796059 -4.369333
				CHANNELS 3 Zrotation Yrotation Xrotation
				JOINT LeftToe
				{
					OFFSET 2.635814 -5.579078 11.928840
					CHANNELS 3 Zrotation Yrotation Xrotation
					End Site
					{
						OFFSET 0.000000 0.000000 0.000000
					}
				}
			}
		}
	}
	JOINT RightUpLeg
	{
		OFFSET -6.767048 -9.052170 -0.431982
		CHANNELS 3 Zrotation Yrotation Xrotation
		JOINT RightLeg
		{
			OFFSET -3.829005 -38.256897 -0.885003
			CHANNELS 3 Zrotation Yrotation Xrotation
			JOINT RightFoot
			{
				OFFSET 1.577377 -39.841461 -4.231180
				CHANNELS 3 Zrotation Yrotation Xrotation
				JOINT RightToe
				{
					OFFSET -2.537174 -4.814398 12.334795
					CHANNELS 3 Zrotation Yrotation Xrotation
					End Site
					{
						OFFSET 0.000000 0.000000 0.000000
					}
				}
			}
		}
	}
	JOINT Spine
	{
		OFFSET -0.253288 10.896323 -2.669631
		CHANNELS 3 Zrotation Yrotation Xrotation
		JOINT Spine1
		{
			OFFSET 0.548704 13.518043 0.109247
			CHANNELS 3 Zrotation Yrotation Xrotation
			JOINT Spine2
			{
				OFFSET 0.145701 5.292222 2.542457
				CHANNELS 3 Zrotation Yrotation Xrotation
				JOINT Neck
				{
					OFFSET -0.277840 21.387037 -4.285703
					CHANNELS 3 Zrotation Yrotation Xrotation
					JOINT Head
					{
						OFFSET 0.515184 6.496960 5.134897
						CHANNELS 3 Zrotation Yrotation Xrotation
						End Site
						{
							OFFSET 0.000000 0.000000 0.000000
						}
					}
				}
				JOINT LeftShoulder
				{
					OFFSET 7.884473 12.174932 -3.408961
					CHANNELS 3 Zrotation Yrotation Xrotation
					JOINT LeftArm
					{
						OFFSET 9.097692 3.046888 -0.886815
						CHANNELS 3 Zrotation Yrotation Xrotation
						JOINT LeftForeArm
						{
							OFFSET 25.961220 -1.277207 -2.745643
							CHANNELS 3 Zrotation Yrotation Xrotation
							JOINT LeftHand
							{
								OFFSET 24.923361 0.898606 -0.117091
								CHANNELS 3 Zrotation Yrotation Xrotation
								End Site
								{
									OFFSET 0.000000 0.000000 0.000000
								}
							}
						}
					}
				}
				JOINT RightShoulder
				{
					OFFSET -8.175920 11.883285 -3.861528
					CHANNELS 3 Zrotation Yrotation Xrotation
					JOINT RightArm
					{
						OFFSET -9.601238 3.255117 -0.914307
						CHANNELS 3 Zrotation Yrotation Xrotation
						JOINT RightForeArm
						{
							OFFSET -25.374195 -1.332924 -2.140099
							CHANNELS 3 Zrotation Yrotation Xrotation
							JOINT RightHand
							{
								OFFSET -25.529810 0.777228 -0.555919
								CHANNELS 3 Zrotation Yrotation Xrotation
								End Site
								{
									OFFSET 0.000000 0.000000 0.000000
								}
							}
						}
					}
				}
			}
		}
	}
}
MOTION
Frames: 18
Frame Time: 0.033333
-5.895922 13.391984 92.640121 -123.315860 -3.048989 87.307530 14.724784 2.829325 -1.248130 -5.646590 -4.459954 19.764331 -0.977285 10.869550 -11.568379 nan nan nan -13.954814 -9.549431 -4.261301 5.020059 -13.674364 7.283057 1.769468 -9.886627 -4.910068 nan nan nan -4.815477 1.300871 -0.062403 2.337964 -5.668671 17.556538 0.792709 -1.325030 0.052789 3.134775 4.304399 27.702745 3.101173 -2.361047 -25.102139 9.800690 -1.589906 4.770632 -48.725258 -21.903322 13.409981 -174.518557 -73.855737 -168.943100 6.559861 -26.077808 -28.578265 -14.159188 -4.848255 -4.780244 70.736055 -5.240479 -0.570811 -59.493240 76.439813 -42.950511 -8.311660 11.623636 -32.256078 
-5.983970 13.134152 92.579155 -123.270787 -2.918869 87.176076 14.817055 2.805375 -1.307519 -5.479053 -4.791670 20.119274 -0.845940 10.831811 -10.691667 nan nan nan -14.134039 -9.776569 -4.253355 5.129735 -13.506223 7.408988 1.621302 -9.889960 -4.770726 nan nan nan -4.707585 1.290271 0.191530 2.365778 -5.890774 17.488112 0.945811 -1.422212 -0.281618 2.519769 3.627391 27.974541 3.119239 -2.690486 -24.295931 10.197039 -3.326199 4.682205 -47.618131 -22.176868 13.325585 -174.390585 -74.553894 -169.826217 7.461141 -25.516698 -29.242142 -14.671754 -3.701658 -5.280825 68.890217 -5.519361 -0.444165 -52.148421 76.787981 -35.770396 -7.759484 11.513977 -31.290286 
-6.090924 12.870258 92.493240 -123.322965 -2.762641 87.003630 14.922189 2.831643 -1.208580 -5.286803 -5.138281 20.356297 -0.743210 10.562927 -9.933030 nan nan nan -14.263608 -9.960406 -4.256207 5.170506 -13.362007 7.613682 1.524521 -9.801742 -4.653253 nan nan nan -4.600250 1.214039 0.580146 2.421224 -6.088169 17.302623 1.015649 -1.514177 -0.826339 1.896105 3.107500 28.149969 3.142960 -3.489413 -23.130980 10.458695 -4.679183 4.470092 -46.657725 -22.828953 13.173046 -174.002378 -75.721020 -170.857367 6.553320 -25.691807 -28.126580 -14.754905 -2.381173 -5.648249 66.756131 -5.516242 0.090333 -45.160278 76.669473 -29.277896 -6.205136 11.684675 -30.749385 
-6.220697 12.608622 92.408577 -123.502492 -2.587366 86.917577 14.994797 2.986159 -1.043800 -5.020800 -5.487500 20.442340 -0.839555 10.067375 -9.453710 nan nan nan -14.326919 -10.168055 -4.414522 5.118504 -13.219910 7.913740 1.633639 -9.571378 -4.582007 nan nan nan -4.146626 0.433991 1.322772 2.105723 -6.693502 16.059718 0.571463 -0.965319 -1.048124 1.188963 3.077623 28.494813 3.317331 -4.283015 -21.726106 10.535342 -5.307852 4.116410 -45.620246 -23.215601 13.085520 -171.658483 -76.890803 -173.921024 4.866326 -26.331876 -26.369231 -14.291476 -0.789002 -5.805766 64.798793 -4.982005 0.938326 -37.958654 76.171996 -22.819043 -3.846946 12.782170 -29.877175 
-6.337130 12.310269 92.296814 -123.649626 -2.330547 86.828886 15.160518 3.174332 -0.864140 -4.963187 -6.154092 20.415640 -1.071432 9.865114 -9.367052 nan nan nan -14.327017 -10.294114 -4.596512 5.106065 -13.052765 8.244008 1.586483 -9.471462 -4.485716 nan nan nan -3.983090 0.269849 1.677525 2.302550 -6.843446 15.798318 0.586790 -1.101303 -1.694847 0.554496 2.429908 28.226574 2.974085 -5.310555 -19.970040 10.302407 -6.154460 3.544434 -45.067824 -24.095436 13.421248 -168.578547 -78.402490 -177.672911 3.711529 -26.747552 -25.442450 -13.740426 0.295556 -6.669344 62.499405 -4.728487 2.235051 -31.026269 75.138665 -16.570311 -3.229594 13.242494 -29.279590 
-6.471091 11.978130 92.154282 -123.754967 -2.026836 86.655524 15.398366 3.419418 -0.567934 -5.035236 -7.045005 20.218698 -1.442419 9.780630 -9.534853 nan nan nan -14.312637 -10.393469 -4.688296 5.111598 -12.866555 8.575242 1.428476 -9.472531 -4.392672 nan nan nan -4.254215 0.997081 1.686540 3.125340 -6.375835 16.262580 1.272540 -2.165836 -2.464157 -0.074275 1.143657 27.373814 2.095315 -6.630814 -17.828973 9.700855 -7.466429 2.900378 -45.048328 -25.621241 13.859840 -164.988697 -80.617214 178.248930 2.962600 -27.026681 -24.012552 -13.182140 0.994970 -7.945381 59.548818 -4.670698 3.510973 -24.182052 73.907219 -10.310304 -3.699402 13.514659 -28.370961 
-6.656384 11.678072 92.015938 -123.911659 -1.845673 86.579892 15.526016 3.668999 -0.182243 -5.048904 -7.738870 19.749575 -1.864958 9.289994 -9.923512 nan nan nan -14.392003 -10.597418 -4.871259 5.094708 -12.606953 8.928220 1.455818 -9.430826 -4.368175 nan nan nan -4.225366 0.758508 1.965981 3.320639 -6.623047 15.449129 1.191832 -2.306556 -2.613171 -0.744229 0.500154 26.988001 1.582457 -7.414495 -15.625711 8.894788 -8.019489 2.323434 -44.410644 -26.712478 14.236464 -156.907610 -82.567114 169.736145 2.375681 -26.998925 -22.468471 -12.068021 2.239489 -8.446667 57.238313 -3.597385 4.804067 -18.867702 72.064300 -5.516979 -3.290267 13.654648 -27.177652 
-6.851430 11.353733 91.856567 -124.097510 -1.637453 86.532269 15.724197 3.901171 0.219725 -5.065055 -8.230032 19.188591 -2.242224 8.719347 -10.581742 nan nan nan -14.444896 -10.833309 -5.111912 5.042725 -12.389937 9.360605 1.557351 -9.188580 -4.335045 nan nan nan -4.292877 0.579781 2.207945 3.626077 -6.881425 14.932833 1.117730 -2.544535 -3.020675 -1.165363 -0.012797 26.083362 0.952706 -8.170240 -12.983156 8.057005 -8.337439 1.717423 -44.059349 -27.884685 14.885307 -144.057776 -84.234697 156.350656 1.320314 -26.752181 -20.559648 -10.566621 3.473573 -9.007567 54.808108 -2.388927 6.481429 -15.155425 70.005957 -3.095824 -2.516674 13.844258 -25.885335 
-7.052857 11.030705 91.679741 -124.274207 -1.325501 86.495672 16.087035 4.161512 0.652458 -5.084245 -8.509136 18.562140 -2.486575 8.316921 -11.144267 nan nan nan -14.384143 -11.010216 -5.285403 5.026297 -12.205901 9.691331 1.703703 -8.973114 -4.256510 nan nan nan -4.325521 0.309794 2.596402 3.983535 -7.129887 14.044094 1.118721 -2.716815 -3.243011 -1.498337 -0.489110 24.699647 0.034769 -8.928749 -9.851715 7.166530 -8.623511 1.148632 -44.279975 -28.951747 15.682941 -123.504617 -85.577018 135.566275 -0.445003 -26.565318 -18.521901 -9.003813 4.596988 -9.482240 52.312020 -1.178192 8.235476 -12.646641 68.126898 -1.329149 -0.420858 13.713819 -24.490966 
-7.270785 10.693165 91.496086 -124.481605 -1.006306 86.523299 16.430395 4.418529 1.077316 -5.174710 -8.751702 18.001891 -2.616071 8.004085 -11.476470 nan nan nan -14.283273 -11.061332 -5.508964 4.974961 -12.060609 9.969668 1.784014 -8.937704 -4.109149 nan nan nan -4.312959 -0.045542 2.980206 4.279347 -7.359810 12.946291 1.130682 -2.775548 -3.419445 -1.954923 -1.054150 23.373849 -0.811207 -9.536084 -6.734715 6.071717 -9.141736 0.665097 -44.500584 -29.775367 16.510755 -92.707600 -86.016771 104.744602 -1.899742 -26.142247 -16.684188 -7.336140 5.740224 -9.850161 49.939994 0.021326 9.600605 -10.159426 66.224111 0.185257 1.911486 13.487530 -23.011151 
-7.486202 10.329435 91.307846 -124.680272 -0.707231 86.646425 16.699534 4.650256 1.415080 -5.220936 -9.071837 17.536604 -2.727107 7.640568 -12.143612 nan nan nan -14.222246 -11.085812 -5.853232 4.963298 -11.946656 10.268017 1.905038 -8.862975 -3.960163 nan nan nan -4.404732 -0.407513 3.206141 4.623949 -7.581560 12.090596 1.189381 -2.812990 -3.803773 -2.481321 -1.741351 22.104176 -1.538186 -10.032456 -3.527371 4.714006 -9.867298 0.323602 -44.543696 -30.312317 17.523757 -63.913714 -85.479108 76.029055 -2.844178 -25.913788 -15.451990 -5.576179 6.931917 -10.357542 47.802451 1.134990 11.005679 -8.278798 63.953665 1.259869 3.478646 13.381338 -21.475237 
-7.707188 9.939057 91.112923 -124.820549 -0.395059 86.826745 16.945185 4.881297 1.616960 -5.143353 -9.159831 17.231078 -2.893737 7.261560 -12.885088 nan nan nan -14.215386 -11.140692 -6.231002 5.019274 -11.968164 10.577452 2.115617 -8.643919 -3.777857 nan nan nan -4.477741 -0.766145 3.346768 5.000164 -7.749869 11.305332 1.255167 -2.959662 -4.203967 -2.947537 -2.447437 20.658658 -2.405637 -10.449991 -0.094323 3.247528 -10.523987 -0.051586 -44.950454 -30.613337 18.816873 -41.877488 -84.268439 54.378605 -3.795551 -26.258704 -14.503914 -3.812443 7.944298 -11.081577 45.947891 2.263120 12.770151 -6.709369 61.466595 2.616984 4.546688 13.590624 -19.973388 
-7.927309 9.545489 90.913521 -124.916095 -0.075088 87.048874 17.218425 5.177936 1.706530 -5.156775 -9.080625 17.074972 -2.941541 6.818374 -13.288608 nan nan nan -14.195793 -11.180977 -6.588305 5.103366 -12.005277 10.815459 2.217465 -8.513821 -3.591324 nan nan nan -4.476785 -1.017696 3.445529 5.344749 -7.880414 10.620215 1.327699 -3.246081 -4.684703 -3.369881 -3.197883 19.142374 -3.486439 -10.574546 3.192201 1.685547 -11.151548 -0.399474 -45.548221 -30.768929 20.144366 -28.148180 -82.740362 40.805759 -5.005945 -26.196508 -13.611743 -2.010144 8.715005 -11.781784 44.268581 3.331977 14.485660 -5.150094 59.335578 4.145000 5.467079 13.389691 -18.574167 
-8.154637 9.138488 90.724480 -124.960424 0.274051 87.199264 17.550521 5.362153 1.926629 -5.284038 -9.200107 16.714266 -2.890703 6.550041 -13.881614 nan nan nan -14.103660 -11.243556 -6.826931 5.091412 -11.950291 11.028445 2.214053 -8.546261 -3.357737 nan nan nan -4.430477 -1.218087 3.631384 5.699465 -8.054505 10.017934 1.401950 -3.486553 -5.169673 -3.791018 -4.087978 17.549853 -4.578801 -10.312028 6.278748 -0.055397 -11.799565 -0.588684 -46.149990 -30.919050 21.413659 -18.754239 -81.251462 31.218163 -6.493938 -25.053601 -12.550896 -0.117429 9.250463 -12.365356 42.786685 4.276836 15.742170 -4.165461 57.724383 5.383370 7.221896 12.489417 -16.523432 
-8.405812 8.713650 90.548988 -125.011573 0.591529 87.344674 17.818168 5.384689 2.251434 -5.416961 -9.432884 16.083277 -2.836622 6.523575 -14.683996 nan nan nan -14.078784 -11.339218 -6.962476 5.137477 -11.906983 11.067343 2.380517 -8.538664 -3.041243 nan nan nan -4.331271 -1.372463 3.945889 5.995285 -8.188096 9.072172 1.429989 -3.655077 -5.483607 -4.239876 -5.019387 16.004835 -5.284828 -9.803777 9.386962 -2.018976 -12.444647 -0.709190 -46.674033 -30.984487 22.750206 -11.455793 -79.692210 23.939514 -7.852014 -23.823390 -11.744933 1.975354 9.474518 -12.991003 41.643570 5.018126 16.652272 -3.890648 56.427089 6.277209 9.701775 11.374356 -13.773488 
-8.642131 8.274191 90.367088 -125.128578 0.868802 87.550476 18.031192 5.485504 2.538569 -5.596004 -9.497544 15.408532 -2.630630 6.369584 -15.219085 nan nan nan -14.137243 -11.336276 -7.165591 5.281466 -11.985463 11.034479 2.669292 -8.460596 -2.683326 nan nan nan -4.258327 -1.526755 4.307194 6.243724 -8.163392 7.866874 1.474912 -3.786122 -5.668511 -4.683169 -5.949339 14.509720 -5.724918 -9.301244 12.408641 -4.176797 -12.914921 -0.991222 -47.332152 -30.894000 24.299583 -5.503098 -77.980067 18.445850 -9.180699 -23.207993 -11.209365 4.045212 9.419883 -13.648450 40.848862 5.589346 17.569372 -4.235094 55.297326 6.963993 12.119920 10.475360 -11.059303 
-8.831298 7.824882 90.180756 -125.314610 1.143171 87.759221 18.284510 5.736483 2.809184 -5.888554 -9.490986 14.787989 -2.422454 6.043223 -15.555867 nan nan nan -14.124291 -11.232524 -7.527894 5.296158 -12.037917 11.229451 2.942988 -8.311465 -2.399901 nan nan nan -4.311249 -1.722510 4.836103 6.555010 -8.002564 6.504626 1.571048 -3.857857 -5.771545 -4.891573 -6.903563 12.940880 -6.226348 -8.924406 15.287007 -6.516410 -13.033979 -1.391775 -48.118624 -30.806213 25.942136 -0.950585 -76.413229 14.456541 -10.706708 -22.827105 -10.377163 6.371713 9.287545 -13.888721 39.931108 6.007165 18.271548 -5.532231 54.663527 6.863616 14.301477 9.748906 -8.266795 
-9.011795 7.358419 90.014450 -125.544117 1.343867 87.939590 18.383718 5.873951 3.137464 -6.146158 -9.653779 14.165712 -2.256048 5.975129 -15.916496 nan nan nan -14.147037 -11.084664 -7.956300 5.236243 -11.875286 11.574531 3.178651 -8.273077 -2.166931 nan nan nan -4.451899 -1.934874 5.470866 6.806724 -7.797290 5.081419 1.641323 -3.747600 -5.847207 -4.824387 -7.893651 11.477915 -6.610303 -8.541586 17.913600 -9.221825 -12.961263 -1.679748 -48.354951 -30.818632 27.266545 1.132004 -75.317785 12.688433 -12.197455 -22.126098 -9.048862 9.169309 9.168180 -13.586479 38.690640 5.932580 18.281578 -7.508510 55.042192 5.569397 16.432691 8.815270 -5.606175 
